<?xml version="1.0" encoding="utf-8"?>
<svg viewBox="232.5078 197.3775 40.9851 11.611" width="40.985" height="11.611" xmlns="http://www.w3.org/2000/svg" xmlns:bx="https://boxy-svg.com">
  <defs>
    <radialGradient id="a" cx="0" cy="0" r="1" gradientTransform="matrix(10.260372, 0, 0, 10.260372, 240.490272, 200.601554)" gradientUnits="userSpaceOnUse">
      <stop stop-color="#AEB2D5"/>
      <stop offset="0.3" stop-color="#AEB2D5"/>
      <stop offset="0.75" stop-color="#484C89"/>
      <stop offset="1" stop-color="#484C89"/>
    </radialGradient>
    <style bx:fonts="AR One Sans">@import url(https://fonts.googleapis.com/css2?family=AR+One+Sans%3Aital%2Cwght%400%2C400..700&amp;display=swap);</style>
  </defs>
  <g>
    <rect x="211.684" y="197.32" width="40.951" height="11.489" style="stroke: rgb(0, 0, 0); fill: rgb(98, 132, 230); stroke-miterlimit: 1; stroke-dasharray: 1, 4; stroke-dashoffset: -12px; stroke-linejoin: bevel; stroke-width: 0px;" rx="2.289" ry="2.289" transform="matrix(0.999996, 0.002981, -0.002981, 0.999996, 21.447045, -0.572738)"/>
    <text style="fill: rgb(255, 255, 255); font-family: 'AR One Sans'; font-size: 14.6774px; line-height: 23.4839px; white-space: pre;" transform="matrix(0.602051, 0, 0, 0.433612, 122.090944, 134.348085)" x="218.446" y="162.564">php</text>
    <path fill="url(#a)" d="M 235.8 203.267 C 235.8 205.537 239.298 207.377 243.613 207.377 C 247.929 207.377 251.427 205.537 251.427 203.267 C 251.427 200.997 247.929 199.156 243.613 199.156 C 239.298 199.156 235.8 200.997 235.8 203.267 Z" style=""/>
    <path fill="#777bb3" d="M 243.613 207.072 C 247.76 207.072 251.122 205.368 251.122 203.267 C 251.122 201.165 247.76 199.461 243.613 199.461 C 239.466 199.461 236.105 201.165 236.105 203.267 C 236.105 205.368 239.466 207.072 243.613 207.072 Z" style=""/>
    <path d="M 240.045 203.738 C 240.386 203.738 240.641 203.676 240.801 203.552 C 240.961 203.428 241.071 203.216 241.129 202.92 C 241.183 202.643 241.162 202.449 241.068 202.345 C 240.972 202.238 240.763 202.184 240.449 202.184 L 239.904 202.184 L 239.602 203.738 L 240.045 203.738 Z M 238.263 205.653 C 238.21 205.653 238.17 205.604 238.179 205.552 L 238.98 201.433 C 238.988 201.393 239.023 201.364 239.064 201.364 L 240.789 201.364 C 241.332 201.364 241.735 201.512 241.989 201.802 C 242.244 202.094 242.322 202.502 242.223 203.015 C 242.182 203.224 242.112 203.418 242.015 203.592 C 241.914 203.771 241.785 203.932 241.634 204.071 C 241.447 204.245 241.235 204.373 241.005 204.447 C 240.779 204.521 240.488 204.558 240.142 204.558 L 239.443 204.558 L 239.244 205.584 C 239.236 205.624 239.201 205.653 239.16 205.653 L 238.263 205.653 Z" style=""/>
    <path fill="#fff" d="M 239.974 202.269 L 240.449 202.269 C 240.829 202.269 240.96 202.352 241.005 202.402 C 241.079 202.484 241.093 202.658 241.045 202.904 C 240.992 203.179 240.892 203.374 240.75 203.484 C 240.604 203.597 240.367 203.653 240.045 203.653 L 239.705 203.653 L 239.975 202.269 L 239.974 202.269 Z M 240.789 201.28 L 239.064 201.28 C 238.982 201.28 238.913 201.337 238.897 201.417 L 238.096 205.536 C 238.077 205.64 238.156 205.737 238.263 205.738 L 239.16 205.738 C 239.242 205.737 239.311 205.68 239.327 205.601 L 239.513 204.643 L 240.142 204.643 C 240.497 204.643 240.797 204.604 241.032 204.527 C 241.273 204.449 241.495 204.316 241.691 204.132 C 241.85 203.988 241.984 203.82 242.089 203.633 C 242.191 203.452 242.264 203.249 242.306 203.032 C 242.411 202.492 242.326 202.059 242.052 201.747 C 241.782 201.437 241.357 201.28 240.789 201.28 Z M 239.499 203.823 L 240.045 203.823 C 240.407 203.823 240.677 203.755 240.854 203.619 C 241.03 203.482 241.15 203.254 241.212 202.936 C 241.271 202.629 241.244 202.414 241.13 202.288 C 241.018 202.162 240.79 202.099 240.449 202.099 L 239.834 202.099 L 239.499 203.823 M 240.789 201.449 C 241.308 201.449 241.687 201.585 241.925 201.858 C 242.163 202.13 242.235 202.511 242.14 202.999 C 242.1 203.2 242.034 203.384 241.941 203.55 C 241.848 203.717 241.726 203.87 241.576 204.008 C 241.397 204.175 241.198 204.295 240.979 204.366 C 240.76 204.437 240.481 204.473 240.142 204.473 L 239.373 204.473 L 239.16 205.569 L 238.263 205.569 L 239.064 201.449 L 240.789 201.449" style=""/>
    <path d="M 244.28 204.558 C 244.227 204.558 244.186 204.509 244.197 204.457 L 244.55 202.635 C 244.585 202.461 244.576 202.337 244.527 202.284 C 244.498 202.252 244.409 202.198 244.143 202.198 L 243.501 202.198 L 243.056 204.489 C 243.048 204.529 243.013 204.558 242.973 204.558 L 242.083 204.558 C 242.03 204.558 241.99 204.509 241.999 204.457 L 242.8 200.338 C 242.808 200.298 242.843 200.269 242.883 200.269 L 243.773 200.269 C 243.827 200.269 243.867 200.318 243.857 200.371 L 243.664 201.364 L 244.354 201.364 C 244.879 201.364 245.237 201.457 245.444 201.648 C 245.655 201.842 245.721 202.153 245.64 202.572 L 245.268 204.489 C 245.26 204.529 245.225 204.558 245.185 204.558 L 244.28 204.558 Z" style=""/>
    <path fill="#fff" d="M 243.773 200.185 L 242.883 200.185 C 242.802 200.185 242.732 200.242 242.717 200.322 L 241.916 204.441 C 241.896 204.545 241.976 204.642 242.083 204.643 L 242.973 204.643 C 243.054 204.642 243.124 204.585 243.139 204.506 L 243.571 202.283 L 244.143 202.283 C 244.407 202.283 244.463 202.339 244.465 202.342 C 244.481 202.359 244.502 202.439 244.468 202.619 L 244.114 204.441 C 244.093 204.545 244.174 204.642 244.28 204.643 L 245.185 204.643 C 245.266 204.642 245.335 204.585 245.351 204.506 L 245.723 202.588 C 245.811 202.139 245.736 201.801 245.501 201.586 C 245.277 201.38 244.902 201.28 244.354 201.28 L 243.766 201.28 L 243.94 200.386 C 243.96 200.282 243.88 200.185 243.773 200.185 Z M 243.773 200.354 L 243.561 201.449 L 244.354 201.449 C 244.853 201.449 245.197 201.536 245.386 201.71 C 245.576 201.884 245.633 202.167 245.557 202.556 L 245.185 204.473 L 244.28 204.473 L 244.634 202.65 C 244.674 202.443 244.66 202.302 244.59 202.227 C 244.52 202.151 244.371 202.113 244.143 202.113 L 243.431 202.113 L 242.973 204.473 L 242.083 204.473 L 242.883 200.354 L 243.773 200.354 Z" style=""/>
    <path d="M 247.048 203.738 C 247.39 203.738 247.644 203.676 247.805 203.552 C 247.965 203.428 248.074 203.216 248.132 202.92 C 248.186 202.643 248.166 202.449 248.071 202.345 C 247.975 202.238 247.767 202.184 247.453 202.184 L 246.908 202.184 L 246.606 203.738 L 247.048 203.738 Z M 245.267 205.653 C 245.213 205.653 245.173 205.604 245.183 205.552 L 245.984 201.433 C 245.992 201.393 246.026 201.364 246.067 201.364 L 247.793 201.364 C 248.335 201.364 248.739 201.512 248.992 201.802 C 249.247 202.094 249.326 202.502 249.226 203.015 C 249.188 203.217 249.118 203.412 249.019 203.592 C 248.918 203.771 248.789 203.932 248.637 204.071 C 248.45 204.245 248.238 204.373 248.008 204.447 C 247.782 204.521 247.492 204.558 247.145 204.558 L 246.446 204.558 L 246.247 205.584 C 246.239 205.624 246.204 205.653 246.164 205.653 L 245.267 205.653 Z" style=""/>
    <path fill="#fff" d="M 246.978 202.269 L 247.453 202.269 C 247.832 202.269 247.963 202.352 248.008 202.402 C 248.083 202.484 248.097 202.658 248.049 202.904 C 247.996 203.179 247.896 203.374 247.753 203.484 C 247.607 203.597 247.371 203.653 247.049 203.653 L 246.708 203.653 L 246.978 202.269 Z M 247.793 201.28 L 246.067 201.28 C 245.986 201.28 245.916 201.337 245.901 201.417 L 245.1 205.536 C 245.08 205.64 245.16 205.737 245.267 205.738 L 246.164 205.738 C 246.245 205.737 246.315 205.68 246.33 205.601 L 246.516 204.643 L 247.145 204.643 C 247.501 204.643 247.8 204.604 248.035 204.527 C 248.276 204.449 248.498 204.316 248.695 204.132 C 248.854 203.988 248.987 203.82 249.092 203.633 C 249.194 203.452 249.267 203.249 249.31 203.032 C 249.415 202.492 249.33 202.059 249.056 201.747 C 248.786 201.437 248.36 201.28 247.793 201.28 Z M 246.503 203.823 L 247.048 203.823 C 247.41 203.823 247.679 203.755 247.857 203.619 C 248.034 203.482 248.153 203.254 248.215 202.936 C 248.275 202.629 248.248 202.414 248.134 202.288 C 248.021 202.162 247.793 202.099 247.453 202.099 L 246.838 202.099 L 246.503 203.823 Z M 247.793 201.449 C 248.312 201.449 248.69 201.585 248.928 201.858 C 249.166 202.13 249.238 202.511 249.143 202.999 C 249.104 203.2 249.038 203.384 248.945 203.55 C 248.852 203.717 248.73 203.87 248.579 204.008 C 248.401 204.175 248.202 204.295 247.982 204.366 C 247.764 204.437 247.484 204.473 247.145 204.473 L 246.377 204.473 L 246.164 205.569 L 245.266 205.569 L 246.067 201.449 L 247.793 201.449" style=""/>
  </g>
</svg>